<svg width="40" height="40" fill="none" xmlns="http://www.w3.org/2000/svg"><path d="M20.046 0h-.091C8.933 0 0 8.934 0 19.954v.091C0 31.067 8.934 40 19.954 40h.091C31.067 40 40 31.066 40 20.046v-.091C40 8.933 31.066 0 20.046 0Z" fill="#88AB8E"/><path d="M26.188 8.137H13.81a6.208 6.208 0 0 0-6.202 6.2v11.324a6.208 6.208 0 0 0 6.201 6.201h12.378a6.208 6.208 0 0 0 6.2-6.2V14.337a6.208 6.208 0 0 0-6.2-6.201Zm-16.391 6.2c0-2.212 1.8-4.013 4.013-4.013h12.378a4.018 4.018 0 0 1 4.013 4.014V25.66c0 2.213-1.8 4.014-4.013 4.014H13.81a4.018 4.018 0 0 1-4.014-4.014V14.338Z" fill="#EEE7DA"/><path d="M19.999 25.766a5.775 5.775 0 0 0 5.768-5.768 5.774 5.774 0 0 0-5.768-5.769 5.774 5.774 0 0 0-5.768 5.769 5.774 5.774 0 0 0 5.768 5.768Zm0-9.347a3.584 3.584 0 0 1 3.58 3.58 3.584 3.584 0 0 1-3.58 3.58A3.584 3.584 0 0 1 16.418 20a3.584 3.584 0 0 1 3.58-3.58Zm6.301-1.256a1.555 1.555 0 1 0-.002-3.108 1.555 1.555 0 0 0 .002 3.108Z" fill="#EEE7DA"/></svg>