<svg width="23" height="23" fill="none" xmlns="http://www.w3.org/2000/svg"><path d="M16.736 22.465c1.977 0 3.322-.565 4.542-1.887.08-.09.159-.192.238-.282.666-.746.994-1.526.994-2.25 0-.847-.452-1.615-1.458-2.304l-3.367-2.351c-1.062-.735-2.294-.791-3.243.158l-.837.837c-.293.293-.576.316-.915.079-.61-.407-1.763-1.424-2.554-2.215-.802-.803-1.616-1.707-2.056-2.396-.238-.35-.215-.621.079-.915l.836-.836c.95-.95.893-2.181.147-3.244L6.746 1.435C6.08.464 5.277.012 4.43 0c-.724-.01-1.492.317-2.238.972l-.271.237C.576 2.441 0 3.763 0 5.82c0 3.334 1.932 7.267 5.695 11.007 3.74 3.718 7.628 5.64 11.04 5.64Zm0-1.887c-2.882.045-6.464-2-9.606-5.119-3.164-3.119-5.265-6.837-5.22-9.718.022-1.21.452-2.272 1.3-3.017.09-.068.157-.125.248-.192.316-.272.655-.419.972-.419.327 0 .621.136.847.475L7.39 5.763c.272.385.283.825-.113 1.21l-.904.892c-.858.836-.78 1.82-.237 2.588.61.848 1.752 2.147 2.712 3.096 1.028 1.017 2.43 2.272 3.243 2.86.769.542 1.752.62 2.588-.238l.893-.904c.373-.396.813-.384 1.209-.124l3.119 2.079c.35.226.474.508.474.836 0 .316-.147.655-.418.983a4.37 4.37 0 0 0-.192.238c-.746.858-1.808 1.288-3.028 1.299Z" fill="#EEE7DA"/></svg>