<svg width="36" height="36" fill="none" xmlns="http://www.w3.org/2000/svg"><path d="M23.48 29.465c1.977 0 3.322-.565 4.543-1.887.079-.09.158-.192.237-.282.666-.746.994-1.526.994-2.25 0-.847-.452-1.615-1.457-2.305l-3.368-2.35c-1.062-.734-2.294-.791-3.243.158l-.836.837c-.294.293-.577.316-.916.079-.61-.407-1.762-1.424-2.554-2.215-.802-.803-1.615-1.707-2.056-2.396-.238-.35-.215-.621.079-.915l.836-.837c.95-.949.893-2.18.147-3.243L13.49 8.435c-.666-.971-1.469-1.423-2.316-1.435-.723-.011-1.492.317-2.238.972l-.27.237c-1.346 1.232-1.922 2.554-1.922 4.61 0 3.335 1.932 7.267 5.696 11.007 3.74 3.718 7.627 5.64 11.04 5.64Zm0-1.887c-2.882.045-6.464-2-9.605-5.119-3.165-3.119-5.266-6.837-5.221-9.718.022-1.21.452-2.271 1.3-3.017.09-.068.158-.125.248-.192.316-.272.655-.419.972-.419.328 0 .621.136.847.475l2.113 3.175c.272.385.283.825-.113 1.21l-.904.892c-.858.836-.78 1.82-.237 2.588.61.848 1.752 2.147 2.712 3.096 1.028 1.017 2.43 2.272 3.243 2.86.769.542 1.752.62 2.588-.238l.893-.904c.373-.396.814-.384 1.209-.124l3.119 2.079c.35.226.474.508.474.836 0 .316-.146.655-.418.983a4.37 4.37 0 0 0-.192.238c-.746.858-1.808 1.288-3.028 1.299Z" fill="#88AB8E"/></svg>