<svg aria-hidden="true" style="position:absolute;width:0;height:0;overflow:hidden" xmlns="http://www.w3.org/2000/svg"><defs><symbol id="icon-arrow-left-icon" viewBox="0 0 32 32"><path fill="none" stroke="#88ab8e" style="stroke:var(--color1, #88ab8e)" stroke-linejoin="round" stroke-linecap="round" stroke-width="2.133" d="m20 6.667-9.284 9.284L20 25.235"/></symbol><symbol id="icon-arrow-right-icon" viewBox="0 0 32 32"><path fill="none" stroke="#88ab8e" style="stroke:var(--color1, #88ab8e)" stroke-linejoin="round" stroke-linecap="round" stroke-width="2.133" d="m12 6.667 9.284 9.284L12 25.235"/></symbol><symbol id="icon-facebook-icon" viewBox="0 0 32 32"><path fill="#88ab8e" style="fill:var(--color1, #88ab8e)" d="M31.998 16.001c0 8.081-5.99 14.762-13.771 15.846a16.209 16.209 0 0 1-4.791-.05C5.818 30.57 0 23.965 0 16.002 0 7.165 7.164.001 16 .001s16 7.164 16 16.001h-.002z"/><path fill="#eee7da" style="fill:var(--color2, #eee7da)" d="M18.228 12.848v3.486h4.312l-.683 4.695h-3.629v10.818a16.209 16.209 0 0 1-4.791-.05V21.03H9.461v-4.695h3.976V12.07a4.792 4.792 0 0 1 4.792-4.792v.002l.022-.002h4.289v4.061h-2.803a1.51 1.51 0 0 0-1.509 1.509l-.001.001z"/></symbol><symbol id="icon-instagram-icon" viewBox="0 0 32 32"><path fill="#88ab8e" style="fill:var(--color1, #88ab8e)" d="M16.036 0h-.073C7.147 0-.001 7.147-.001 15.964v.073c0 8.816 7.147 15.964 15.964 15.964h.073C24.852 32.001 32 24.854 32 16.037v-.073C32 7.148 24.853 0 16.036 0z"/><path fill="#eee7da" style="fill:var(--color2, #eee7da)" d="M20.95 6.509h-9.902a4.966 4.966 0 0 0-4.961 4.961v9.059a4.966 4.966 0 0 0 4.961 4.961h9.902a4.966 4.966 0 0 0 4.961-4.961V11.47a4.966 4.966 0 0 0-4.961-4.961zM7.838 11.47a3.215 3.215 0 0 1 3.211-3.211h9.902a3.215 3.215 0 0 1 3.211 3.211v9.059a3.215 3.215 0 0 1-3.211 3.211h-9.902a3.215 3.215 0 0 1-3.211-3.211V11.47z"/><path fill="#eee7da" style="fill:var(--color2, #eee7da)" d="M15.999 20.613c2.544 0 4.614-2.07 4.614-4.615s-2.07-4.614-4.614-4.614-4.614 2.07-4.614 4.614a4.62 4.62 0 0 0 4.614 4.615zm0-7.478c1.58 0 2.864 1.285 2.864 2.864s-1.285 2.864-2.864 2.864-2.864-1.285-2.864-2.864a2.867 2.867 0 0 1 2.864-2.864zm5.041-1.005a1.244 1.244 0 0 0 0-2.488 1.244 1.244 0 0 0 0 2.488z"/></symbol><symbol id="icon-location-icon" viewBox="0 0 32 32"><path fill="none" stroke="#88ab8e" style="stroke:var(--color1, #88ab8e)" stroke-linejoin="round" stroke-linecap="round" stroke-width="1.778" d="m22.914 21.136-5.657 5.657a1.776 1.776 0 0 1-2.512.001l-5.658-5.658A9.779 9.779 0 0 1 22.915 7.308c3.818 3.818 3.818 10.009 0 13.828z"/><path fill="none" stroke="#88ab8e" style="stroke:var(--color1, #88ab8e)" stroke-linejoin="round" stroke-linecap="round" stroke-width="1.778" d="M19.667 14.222a3.667 3.667 0 1 1-7.335 0 3.667 3.667 0 0 1 7.335 0z"/></symbol><symbol id="icon-logo-icon" viewBox="0 0 64 32"><path d="M0 0h45.241v32H0V0z"/><path fill="#88ab8e" style="fill:var(--color1, #88ab8e)" d="M36.677 14.293v1.715h-.185c-.201-1.043-.721-1.565-1.56-1.565-.451 0-.78.177-.987.53s-.31 1.098-.31 2.233c0 .934.044 1.569.134 1.905s.243.578.461.724c.221.144.464.216.729.216.345 0 .668-.129.97-.388.305-.262.54-.68.707-1.254h.202l-.069 1.763h-.177a1.138 1.138 0 0 0-.31-.466c-.454.376-.921.565-1.401.565-.609 0-1.165-.289-1.668-.866s-.754-1.285-.754-2.121c0-.853.247-1.576.742-2.168.494-.595 1.066-.892 1.715-.892.5 0 .941.18 1.323.539.112-.178.197-.335.254-.47h.185z"/><path fill="#594c42" style="fill:var(--color4, #594c42)" d="M38.043 19.918v-5.34h-.616v-.22h.59c.397 0 .686-.022.866-.065v5.625h.608v.22h-2.065v-.22h.616zm5.082-1.733h-2.181c-.02.851.027 1.375.142 1.573.115.195.32.293.616.293.609 0 1.022-.353 1.237-1.06h.185c-.095.428-.274.744-.539.948s-.559.306-.884.306c-.463 0-.865-.171-1.207-.513-.342-.345-.513-.777-.513-1.297 0-.506.167-.931.5-1.276.336-.345.726-.517 1.168-.517.385 0 .721.137 1.009.41.29.273.445.651.465 1.134zm-2.181-.194h1.254c.023-.204.034-.359.034-.466 0-.46-.208-.69-.625-.69-.207 0-.369.056-.487.168a.58.58 0 0 0-.177.448v.539zm5.082.212v-.44c0-.359-.03-.595-.09-.707-.058-.112-.216-.168-.474-.168-.466 0-.698.089-.698.267 0 .052.018.109.056.172.04.06.06.132.06.216a.333.333 0 0 1-.116.272.42.42 0 0 1-.263.09.374.374 0 0 1-.293-.116.416.416 0 0 1-.103-.28c0-.23.134-.422.401-.578.27-.158.645-.237 1.125-.237.385 0 .667.045.845.134s.287.2.327.332c.043.132.065.319.065.56v1.586c0 .233.016.378.047.435a.17.17 0 0 0 .155.086c.103 0 .204-.07.302-.211h.103c-.075.42-.319.629-.733.629-.399 0-.638-.23-.716-.69-.336.46-.73.69-1.181.69-.299 0-.537-.08-.715-.241a.783.783 0 0 1-.267-.599c0-.733.721-1.134 2.164-1.203zm0 .663V18.4c-.532.02-.882.101-1.052.241-.169.138-.254.339-.254.603 0 .193.05.342.151.448.103.106.221.16.354.16a.698.698 0 0 0 .457-.168c.138-.115.23-.23.276-.345s.069-.273.069-.474zm2.59 1.052V16.97h-.612v-.22h.392c.388 0 .74-.022 1.056-.065v.84h.017c.296-.589.714-.884 1.254-.884a.963.963 0 0 1 .953.651c.06.175.09.447.09.815v1.81h.673v.22h-2.086v-.22h.573v-2.155c0-.33-.022-.559-.065-.685-.04-.126-.148-.19-.323-.19-.279 0-.53.144-.754.431-.221.285-.332.668-.332 1.151v1.448h.564v.22h-2.013v-.22h.612zm4.72-4.892a.45.45 0 0 1 .138-.328.463.463 0 0 1 .659 0 .43.43 0 0 1 .142.328c0 .135-.046.247-.138.336s-.202.134-.332.134a.461.461 0 0 1-.47-.47zm.866 1.659v3.233h.565v.22h-2.004v-.22h.603V16.97h-.603v-.22h.612c.293 0 .569-.022.828-.065zm1.596 3.233V16.97h-.612v-.22h.392c.388 0 .74-.022 1.056-.065v.84h.017c.296-.589.714-.884 1.254-.884a.963.963 0 0 1 .953.651c.06.175.091.447.091.815v1.81h.672v.22h-2.086v-.22h.574v-2.155c0-.33-.022-.559-.065-.685-.04-.126-.148-.19-.323-.19-.279 0-.53.144-.754.431-.221.285-.332.668-.332 1.151v1.448h.565v.22h-2.013v-.22h.612zm7.15-2.72c.169.238.254.474.254.707 0 .394-.159.693-.478.897-.316.201-.575.302-.776.302l-.215.013c-.1 0-.237-.007-.409-.022a10.82 10.82 0 0 0-.276-.026c-.112 0-.243.052-.392.155-.15.101-.224.208-.224.323 0 .101.039.177.116.228s.272.078.582.078l1.474-.06c.307 0 .557.098.75.293s.289.474.289.836c0 .422-.174.777-.522 1.065-.348.29-.829.435-1.444.435-.477 0-.856-.096-1.138-.289-.279-.19-.418-.414-.418-.672 0-.158.044-.292.134-.401.089-.106.289-.249.599-.427-.477-.115-.716-.378-.716-.789 0-.552.297-.863.892-.935v-.017c-.46-.218-.69-.547-.69-.987 0-.356.142-.655.427-.897a1.492 1.492 0 0 1 1.004-.366c.42 0 .77.144 1.052.431.207-.287.437-.431.69-.431a.355.355 0 0 1 .362.371.317.317 0 0 1-.095.241.303.303 0 0 1-.207.086.264.264 0 0 1-.246-.151c-.052-.101-.096-.151-.134-.151-.072 0-.154.053-.246.16zm-1.194-.336c-.279 0-.451.07-.517.211s-.099.376-.099.707c0 .477.03.785.09.922.063.138.241.207.535.207.299 0 .478-.07.539-.211s.09-.484.09-1.03c0-.339-.055-.558-.164-.655-.106-.101-.264-.151-.474-.151zm-.651 3.772c-.273.172-.409.428-.409.767 0 .534.365.802 1.095.802.466 0 .849-.109 1.151-.328.305-.218.457-.474.457-.767 0-.175-.076-.31-.228-.405s-.323-.142-.513-.142c-.075 0-.243.009-.504.026s-.455.027-.582.03l-.466.017z"/><path fill="#88ab8e" style="fill:var(--color1, #88ab8e)" d="M8.112 18.336H6.276l-.59 1.582h1.069v.22H4.66v-.22h.797l2.108-5.694h.134l2.022 5.694h.776v.22H7.743v-.22h.935l-.565-1.582zm-1.754-.22h1.677l-.815-2.315h-.017l-.845 2.315z"/><path fill="#594c42" style="fill:var(--color4, #594c42)" d="M10.552 14.358h4.927l.151 1.966h-.22c-.135-.658-.315-1.114-.539-1.366-.221-.253-.513-.379-.875-.379h-.47v5.34h1.034v.22h-3.091v-.22h1.034v-5.34h-.47c-.362 0-.655.126-.879.379-.221.253-.399.708-.534 1.366h-.22l.151-1.966zm8.694 5.914c-.747 0-1.382-.313-1.905-.94-.52-.626-.78-1.296-.78-2.009 0-.856.273-1.586.819-2.19.549-.606 1.185-.909 1.91-.909.681 0 1.292.307 1.832.922s.81 1.313.81 2.095a3.09 3.09 0 0 1-.815 2.121c-.54.606-1.164.91-1.871.91zm.017-5.828c-.316 0-.601.073-.853.22-.25.144-.421.395-.513.754-.089.359-.134.986-.134 1.879 0 .618.026 1.111.078 1.478s.182.672.392.914c.213.241.545.362.996.362.276 0 .552-.073.828-.22.279-.147.46-.434.543-.862.086-.431.129-1.092.129-1.983 0-.807-.053-1.365-.159-1.672-.103-.307-.272-.529-.504-.664a1.528 1.528 0 0 0-.802-.207zm3.496-.086h2.073l1.237 4.086h.017l1.246-4.086h2.021v.22h-.858v5.341h.858v.22h-2.72v-.22h.884v-5.44H27.5l-1.72 5.659h-.198l-1.72-5.659h-.017v5.44h.884v.22h-1.97v-.22h.866v-5.34h-.866v-.22z"/></symbol><symbol id="icon-mail-icon" viewBox="0 0 32 32"><path fill="none" stroke="#88ab8e" style="stroke:var(--color1, #88ab8e)" stroke-linejoin="round" stroke-width="1.778" d="M25.778 10.444c0-.941-.763-1.704-1.704-1.704H7.037c-.941 0-1.704.763-1.704 1.704v11.074c0 .941.763 1.704 1.704 1.704h17.037c.941 0 1.704-.763 1.704-1.704V10.444z"/><path fill="none" stroke="#88ab8e" style="stroke:var(--color1, #88ab8e)" stroke-linejoin="round" stroke-width="1.778" d="M24.567 9.85a.639.639 0 0 0-.432-1.11H6.975a.64.64 0 0 0-.432 1.11l7.285 6.678a2.555 2.555 0 0 0 3.454 0l7.285-6.678z"/></symbol><symbol id="icon-mobile-icon" viewBox="0 0 32 32"><path fill="#88ab8e" style="fill:var(--color1, #88ab8e)" d="M20.871 26.191c1.758 0 2.953-.502 4.038-1.677.07-.08.141-.171.211-.251.593-.663.884-1.356.884-1.999 0-.753-.402-1.436-1.296-2.049l-2.993-2.089c-.944-.653-2.039-.703-2.883.141l-.743.743c-.261.261-.512.281-.814.07-.542-.362-1.567-1.266-2.27-1.969-.713-.713-1.436-1.517-1.828-2.129-.211-.311-.191-.552.07-.814l.743-.743c.844-.844.793-1.939.131-2.883l-2.129-3.044c-.593-.864-1.306-1.266-2.059-1.276-.643-.01-1.326.281-1.989.864l-.241.211c-1.195 1.095-1.708 2.27-1.708 4.098 0 2.963 1.718 6.459 5.063 9.783 3.325 3.305 6.78 5.012 9.814 5.012zm0-1.677c-2.561.04-5.746-1.778-8.538-4.55-2.813-2.772-4.681-6.077-4.641-8.638.02-1.075.402-2.019 1.155-2.682.08-.06.141-.111.221-.171.281-.241.583-.372.864-.372.291 0 .552.121.753.422l1.878 2.823c.241.341.251.733-.1 1.075l-.804.793c-.763.743-.693 1.617-.211 2.3.542.753 1.557 1.908 2.411 2.752.914.904 2.16 2.019 2.883 2.541.683.482 1.557.552 2.3-.211l.794-.804c.332-.352.723-.341 1.075-.11l2.772 1.848c.311.201.422.452.422.743 0 .281-.131.583-.372.874-.06.07-.11.131-.171.211-.663.763-1.607 1.145-2.692 1.155z"/></symbol><symbol id="icon-phone-icon" viewBox="0 0 31 32"><path fill="#594c42" style="fill:var(--color4, #594c42)" d="M20.407 24.153c1.719 0 2.888-.402 3.948-1.342.069-.064.138-.137.206-.201.579-.53.864-1.085.864-1.599 0-.603-.393-1.149-1.267-1.639l-2.927-1.671c-.923-.522-1.994-.563-2.819.113l-.727.595c-.255.209-.501.225-.796.056-.53-.289-1.532-1.013-2.22-1.575-.697-.571-1.404-1.213-1.788-1.704-.206-.249-.187-.442.069-.651l.727-.595c.825-.675.776-1.551.128-2.306l-2.082-2.435c-.579-.691-1.277-1.012-2.013-1.021-.629-.008-1.296.225-1.945.691l-.236.169c-1.169.876-1.67 1.816-1.67 3.279 0 2.371 1.679 5.167 4.95 7.827 3.251 2.644 6.629 4.01 9.596 4.01zm0-1.342c-2.504.032-5.618-1.422-8.348-3.64-2.75-2.218-4.577-4.862-4.538-6.911.02-.86.393-1.615 1.129-2.146.079-.048.138-.088.216-.137.275-.193.57-.297.845-.297.285 0 .54.096.737.338l1.837 2.258c.236.273.246.587-.098.86l-.786.635c-.746.595-.678 1.294-.206 1.84.53.603 1.522 1.527 2.357 2.202.894.723 2.112 1.615 2.819 2.033.668.386 1.522.442 2.249-.169l.776-.643c.324-.281.707-.273 1.051-.088l2.711 1.479c.305.161.413.362.413.595 0 .225-.128.466-.363.699a2.974 2.974 0 0 0-.167.169c-.648.611-1.571.916-2.632.924z"/></symbol><symbol id="icon-star-icon" viewBox="0 0 33 32"><path fill="#88ab8e" style="fill:var(--color1, #88ab8e);stroke:var(--color1, #88ab8e)" stroke="#88ab8e" stroke-width="3.556" d="M13.532 7.247c1.297-3.172 1.945-4.758 3.061-4.758s1.764 1.586 3.061 4.758l.06.148c.733 1.792 1.099 2.688 1.846 3.233s1.727.631 3.687.803l.354.031c3.208.282 4.813.423 5.156 1.424s-.848 2.065-3.231 4.191l-.795.71c-1.206 1.076-1.809 1.615-2.09 2.32a3.34 3.34 0 0 0-.131.404c-.185.736-.008 1.516.345 3.078l.11.486c.649 2.87.974 4.305.407 4.924a1.66 1.66 0 0 1-.793.48c-.818.219-1.98-.71-4.303-2.567-1.525-1.22-2.288-1.829-3.164-1.966a3.359 3.359 0 0 0-1.04 0c-.876.137-1.638.747-3.164 1.966-2.323 1.857-3.485 2.786-4.303 2.567a1.651 1.651 0 0 1-.793-.48c-.567-.619-.242-2.054.407-4.924l.11-.486c.353-1.562.53-2.343.345-3.078a3.22 3.22 0 0 0-.13-.404c-.281-.706-.884-1.244-2.09-2.32l-.795-.71c-2.383-2.127-3.574-3.19-3.231-4.191s1.947-1.142 5.156-1.424l.354-.031c1.96-.172 2.941-.258 3.687-.803s1.113-1.441 1.846-3.233l.06-.148z"/></symbol><symbol id="icon-telegram-icon" viewBox="0 0 33 32"><path fill="#88ab8e" style="fill:var(--color1, #88ab8e)" d="M16.294 0h-.073C7.405 0 .257 7.147.257 15.964v.073c0 8.816 7.147 15.964 15.964 15.964h.073c8.816 0 15.964-7.147 15.964-15.964v-.073C32.258 7.148 25.111 0 16.294 0z"/><path fill="#eee7da" style="fill:var(--color2, #eee7da)" d="m6.319 15.455.133-.064c.76-.352 1.53-.682 2.299-1.011.041 0 .111-.048.15-.064l.178-.076.342-.147.685-.293 1.369-.586 2.739-1.172 2.739-1.172 2.739-1.172 2.739-1.172c.203-.087.423-.217.64-.256.183-.032.361-.095.545-.13.349-.066.733-.093 1.067.052.115.05.222.121.31.21.424.419.364 1.108.275 1.697L23.394 22.43c-.085.564-.202 1.183-.647 1.539-.377.302-.913.335-1.378.207-.465-.129-.876-.399-1.278-.665l-5.009-3.316c-.397-.262-.839-.605-.834-1.082.002-.287.174-.543.349-.77 1.451-1.892 3.544-3.193 5.101-4.998.22-.254.392-.714.091-.861-.179-.087-.386.031-.549.145l-6.174 4.289c-.672.466-1.376.946-2.185 1.061-.724.103-1.453-.099-2.154-.305-.587-.173-1.174-.35-1.758-.532-.311-.096-.631-.201-.871-.419s-.378-.586-.233-.878c.091-.183.267-.298.452-.392l.002.001z"/></symbol><symbol id="icon-time-icon" viewBox="0 0 32 32"><path fill="#88ab8e" style="fill:var(--color1, #88ab8e)" d="M15.719 26.106c5.695 0 10.396-4.701 10.396-10.386S21.404 5.334 15.709 5.334c-5.685 0-10.376 4.701-10.376 10.386s4.701 10.386 10.386 10.386zm0-2.07c-4.611 0-8.297-3.707-8.297-8.317s3.686-8.307 8.287-8.307c4.611 0 8.317 3.696 8.327 8.307s-3.706 8.317-8.317 8.317zm-5.062-7.051h5.052a.796.796 0 0 0 .814-.804V9.612a.796.796 0 0 0-.814-.804.791.791 0 0 0-.793.804v5.766h-4.259c-.452 0-.804.352-.804.804s.352.804.804.804z"/></symbol><symbol id="icon-whatsapp-icon" viewBox="0 0 34 32"><path fill="#88ab8e" style="fill:var(--color1, #88ab8e)" d="M16.967 0h-.077C7.562 0 0 7.147 0 15.964v.073c0 8.816 7.562 15.964 16.89 15.964h.077c9.328 0 16.89-7.147 16.89-15.964v-.073C33.857 7.148 26.295 0 16.967 0z"/><path fill="#eee7da" style="fill:var(--color2, #eee7da)" d="M20.227 20.68c-4.333 0-7.858-3.333-7.86-7.428.001-1.038.896-1.882 1.992-1.882.113 0 .224.009.331.027.235.037.458.112.663.225.03.017.05.044.055.075l.458 2.728a.1.1 0 0 1-.027.087 1.991 1.991 0 0 1-.935.55l-.173.046.065.158c.591 1.422 1.794 2.557 3.299 3.118l.167.063.049-.164c.101-.34.302-.645.582-.883a.111.111 0 0 1 .075-.027l.019.001 2.886.433a.119.119 0 0 1 .081.052 1.81 1.81 0 0 1 .265.94c0 1.037-.893 1.881-1.992 1.882z"/><path fill="#eee7da" style="fill:var(--color2, #eee7da)" d="M27.912 15.101c-.234-2.496-1.444-4.811-3.407-6.518-1.975-1.718-4.537-2.664-7.217-2.664-5.881 0-10.666 4.523-10.666 10.081 0 1.866.544 3.683 1.575 5.266l-2.299 4.81 7.36-.741c1.28.496 2.634.747 4.028.747a11.5 11.5 0 0 0 1.12-.055c.332-.034.668-.083.998-.146 4.925-.941 8.52-5.072 8.549-9.827V16c0-.303-.014-.605-.043-.898l.001-.001zm-14.37 8.123-4.072.41 1.216-2.546-.243-.308a7.685 7.685 0 0 1-1.669-4.779c0-4.437 3.82-8.047 8.514-8.047 4.398 0 8.127 3.243 8.486 7.384.019.222.03.445.03.665l-.002.191c-.09 3.712-2.834 6.865-6.672 7.667a8.354 8.354 0 0 1-.892.139c-.311.034-.63.05-.947.05a8.854 8.854 0 0 1-3.593-.753l-.154-.071-.001-.002z"/></symbol></defs></svg>