<svg aria-hidden="true" style="position: absolute; width: 0; height: 0; overflow: hidden;" version="1.1" xmlns="http://www.w3.org/2000/svg" xmlns:xlink="http://www.w3.org/1999/xlink">
<defs>
<symbol id="icon-arrow-left-icon" viewBox="0 0 32 32">
<path fill="none" stroke="#88ab8e" style="stroke: var(--color1, #88ab8e)" stroke-linejoin="round" stroke-linecap="round" stroke-miterlimit="4" stroke-width="2.1333" d="M20 6.667l-9.284 9.284 9.284 9.284"></path>
</symbol>
<symbol id="icon-arrow-right-icon" viewBox="0 0 32 32">
<path fill="none" stroke="#88ab8e" style="stroke: var(--color1, #88ab8e)" stroke-linejoin="round" stroke-linecap="round" stroke-miterlimit="4" stroke-width="2.1333" d="M12 6.667l9.284 9.284-9.284 9.284"></path>
</symbol>
<symbol id="icon-facebook-icon" viewBox="0 0 32 32">
<path fill="#88ab8e" style="fill: var(--color1, #88ab8e)" d="M31.998 16.001c0 8.081-5.99 14.762-13.771 15.846-0.728 0.101-1.472 0.154-2.228 0.154-0.872 0-1.729-0.070-2.563-0.204-7.618-1.227-13.436-7.832-13.436-15.795 0-8.837 7.164-16.001 16-16.001s16 7.164 16 16.001h-0.002z"></path>
<path fill="#eee7da" style="fill: var(--color2, #eee7da)" d="M18.228 12.848v3.486h4.312l-0.683 4.695h-3.629v10.818c-0.728 0.101-1.472 0.154-2.228 0.154-0.872 0-1.729-0.069-2.563-0.204v-10.767h-3.976v-4.695h3.976v-4.265c0-2.646 2.145-4.792 4.792-4.792v0.002c0.008 0 0.015-0.002 0.022-0.002h4.289v4.061h-2.803c-0.833 0-1.509 0.676-1.509 1.509l-0.001 0.001z"></path>
</symbol>
<symbol id="icon-instagram-icon" viewBox="0 0 32 32">
<path fill="#88ab8e" style="fill: var(--color1, #88ab8e)" d="M16.036 0h-0.073c-8.816 0-15.964 7.147-15.964 15.964v0.073c0 8.816 7.147 15.964 15.964 15.964h0.073c8.816 0 15.964-7.147 15.964-15.964v-0.073c0-8.816-7.147-15.964-15.964-15.964z"></path>
<path fill="#eee7da" style="fill: var(--color2, #eee7da)" d="M20.95 6.509h-9.902c-2.736 0-4.961 2.225-4.961 4.961v9.059c0 2.736 2.225 4.961 4.961 4.961h9.902c2.736 0 4.961-2.225 4.961-4.961v-9.059c0-2.736-2.225-4.961-4.961-4.961zM7.838 11.47c0-1.77 1.441-3.211 3.211-3.211h9.902c1.77 0 3.211 1.441 3.211 3.211v9.059c0 1.77-1.441 3.211-3.211 3.211h-9.902c-1.77 0-3.211-1.441-3.211-3.211v-9.059z"></path>
<path fill="#eee7da" style="fill: var(--color2, #eee7da)" d="M15.999 20.613c2.544 0 4.614-2.070 4.614-4.615s-2.070-4.614-4.614-4.614-4.614 2.070-4.614 4.614c0 2.545 2.070 4.615 4.614 4.615zM15.999 13.135c1.58 0 2.864 1.285 2.864 2.864s-1.285 2.864-2.864 2.864-2.864-1.285-2.864-2.864c0-1.58 1.285-2.864 2.864-2.864z"></path>
<path fill="#eee7da" style="fill: var(--color2, #eee7da)" d="M21.040 12.13c0.685 0 1.243-0.557 1.243-1.244s-0.557-1.244-1.243-1.244c-0.686 0-1.243 0.557-1.243 1.244s0.557 1.244 1.243 1.244z"></path>
</symbol>
<symbol id="icon-location-icon" viewBox="0 0 32 32">
<path fill="none" stroke="#88ab8e" style="stroke: var(--color1, #88ab8e)" stroke-linejoin="round" stroke-linecap="round" stroke-miterlimit="4" stroke-width="1.7778" d="M22.914 21.136c-1.26 1.26-4.032 4.032-5.657 5.657-0.694 0.694-1.818 0.695-2.512 0.001-1.598-1.598-4.313-4.313-5.658-5.658-3.818-3.819-3.818-10.009 0-13.828s10.009-3.818 13.828 0c3.818 3.818 3.818 10.009 0 13.828z"></path>
<path fill="none" stroke="#88ab8e" style="stroke: var(--color1, #88ab8e)" stroke-linejoin="round" stroke-linecap="round" stroke-miterlimit="4" stroke-width="1.7778" d="M19.667 14.222c0 2.025-1.642 3.667-3.667 3.667s-3.667-1.642-3.667-3.667c0-2.025 1.642-3.667 3.667-3.667s3.667 1.642 3.667 3.667z"></path>
</symbol>
<symbol id="icon-logo-icon" viewBox="0 0 64 32">
<path  d="M0 0h45.241v32h-45.241v-32z"></path>
<path fill="#88ab8e" style="fill: var(--color1, #88ab8e)" d="M36.677 14.293v1.715h-0.185c-0.201-1.043-0.721-1.565-1.56-1.565-0.451 0-0.78 0.177-0.987 0.53s-0.31 1.098-0.31 2.233c0 0.934 0.044 1.569 0.134 1.905s0.243 0.578 0.461 0.724c0.221 0.144 0.464 0.216 0.729 0.216 0.345 0 0.668-0.129 0.97-0.388 0.305-0.262 0.54-0.68 0.707-1.254h0.202l-0.069 1.763h-0.177c-0.066-0.184-0.17-0.339-0.31-0.466-0.454 0.376-0.921 0.565-1.401 0.565-0.609 0-1.165-0.289-1.668-0.866s-0.754-1.285-0.754-2.121c0-0.853 0.247-1.576 0.742-2.168 0.494-0.595 1.066-0.892 1.715-0.892 0.5 0 0.941 0.18 1.323 0.539 0.112-0.178 0.197-0.335 0.254-0.47h0.185z"></path>
<path fill="#594c42" style="fill: var(--color4, #594c42)" d="M38.043 19.918v-5.34h-0.616v-0.22h0.59c0.397 0 0.686-0.022 0.866-0.065v5.625h0.608v0.22h-2.065v-0.22h0.616zM43.125 18.185h-2.181c-0.020 0.851 0.027 1.375 0.142 1.573 0.115 0.195 0.32 0.293 0.616 0.293 0.609 0 1.022-0.353 1.237-1.060h0.185c-0.095 0.428-0.274 0.744-0.539 0.948s-0.559 0.306-0.884 0.306c-0.463 0-0.865-0.171-1.207-0.513-0.342-0.345-0.513-0.777-0.513-1.297 0-0.506 0.167-0.931 0.5-1.276 0.336-0.345 0.726-0.517 1.168-0.517 0.385 0 0.721 0.137 1.009 0.41 0.29 0.273 0.445 0.651 0.465 1.134zM40.944 17.991h1.254c0.023-0.204 0.034-0.359 0.034-0.466 0-0.46-0.208-0.69-0.625-0.69-0.207 0-0.369 0.056-0.487 0.168-0.118 0.109-0.177 0.259-0.177 0.448v0.539zM46.026 18.203v-0.44c0-0.359-0.030-0.595-0.090-0.707-0.058-0.112-0.216-0.168-0.474-0.168-0.466 0-0.698 0.089-0.698 0.267 0 0.052 0.018 0.109 0.056 0.172 0.040 0.060 0.060 0.132 0.060 0.216 0 0.118-0.039 0.208-0.116 0.272-0.078 0.060-0.165 0.090-0.263 0.090-0.126 0-0.224-0.039-0.293-0.116-0.069-0.080-0.103-0.174-0.103-0.28 0-0.23 0.134-0.422 0.401-0.578 0.27-0.158 0.645-0.237 1.125-0.237 0.385 0 0.667 0.045 0.845 0.134s0.287 0.2 0.327 0.332c0.043 0.132 0.065 0.319 0.065 0.56v1.586c0 0.233 0.016 0.378 0.047 0.435 0.035 0.057 0.086 0.086 0.155 0.086 0.103 0 0.204-0.070 0.302-0.211h0.103c-0.075 0.42-0.319 0.629-0.733 0.629-0.399 0-0.638-0.23-0.716-0.69-0.336 0.46-0.73 0.69-1.181 0.69-0.299 0-0.537-0.080-0.715-0.241-0.178-0.164-0.267-0.363-0.267-0.599 0-0.733 0.721-1.134 2.164-1.203zM46.026 18.866v-0.466c-0.532 0.020-0.882 0.101-1.052 0.241-0.169 0.138-0.254 0.339-0.254 0.603 0 0.193 0.050 0.342 0.151 0.448 0.103 0.106 0.221 0.16 0.354 0.16 0.169 0 0.322-0.056 0.457-0.168 0.138-0.115 0.23-0.23 0.276-0.345s0.069-0.273 0.069-0.474zM48.616 19.918v-2.948h-0.612v-0.22h0.392c0.388 0 0.74-0.022 1.056-0.065v0.84h0.017c0.296-0.589 0.714-0.884 1.254-0.884 0.253 0 0.46 0.065 0.621 0.194 0.164 0.129 0.274 0.282 0.332 0.457 0.060 0.175 0.090 0.447 0.090 0.815v1.81h0.673v0.22h-2.086v-0.22h0.573v-2.155c0-0.33-0.022-0.559-0.065-0.685-0.040-0.126-0.148-0.19-0.323-0.19-0.279 0-0.53 0.144-0.754 0.431-0.221 0.285-0.332 0.668-0.332 1.151v1.448h0.564v0.22h-2.013v-0.22h0.612zM53.336 15.026c0-0.126 0.046-0.236 0.138-0.328 0.095-0.092 0.206-0.138 0.332-0.138s0.236 0.046 0.327 0.138c0.095 0.089 0.142 0.198 0.142 0.328 0 0.135-0.046 0.247-0.138 0.336s-0.202 0.134-0.332 0.134c-0.129 0-0.24-0.045-0.332-0.134-0.092-0.092-0.138-0.204-0.138-0.336zM54.202 16.685v3.233h0.565v0.22h-2.004v-0.22h0.603v-2.948h-0.603v-0.22h0.612c0.293 0 0.569-0.022 0.828-0.065zM55.798 19.918v-2.948h-0.612v-0.22h0.392c0.388 0 0.74-0.022 1.056-0.065v0.84h0.017c0.296-0.589 0.714-0.884 1.254-0.884 0.253 0 0.46 0.065 0.621 0.194 0.164 0.129 0.274 0.282 0.332 0.457 0.060 0.175 0.091 0.447 0.091 0.815v1.81h0.672v0.22h-2.086v-0.22h0.574v-2.155c0-0.33-0.022-0.559-0.065-0.685-0.040-0.126-0.148-0.19-0.323-0.19-0.279 0-0.53 0.144-0.754 0.431-0.221 0.285-0.332 0.668-0.332 1.151v1.448h0.565v0.22h-2.013v-0.22h0.612zM62.948 17.198c0.169 0.238 0.254 0.474 0.254 0.707 0 0.394-0.159 0.693-0.478 0.897-0.316 0.201-0.575 0.302-0.776 0.302l-0.215 0.013c-0.1 0-0.237-0.007-0.409-0.022-0.172-0.017-0.264-0.026-0.276-0.026-0.112 0-0.243 0.052-0.392 0.155-0.15 0.101-0.224 0.208-0.224 0.323 0 0.101 0.039 0.177 0.116 0.228s0.272 0.078 0.582 0.078l1.474-0.060c0.307 0 0.557 0.098 0.75 0.293s0.289 0.474 0.289 0.836c0 0.422-0.174 0.777-0.522 1.065-0.348 0.29-0.829 0.435-1.444 0.435-0.477 0-0.856-0.096-1.138-0.289-0.279-0.19-0.418-0.414-0.418-0.672 0-0.158 0.044-0.292 0.134-0.401 0.089-0.106 0.289-0.249 0.599-0.427-0.477-0.115-0.716-0.378-0.716-0.789 0-0.552 0.297-0.863 0.892-0.935v-0.017c-0.46-0.218-0.69-0.547-0.69-0.987 0-0.356 0.142-0.655 0.427-0.897 0.284-0.244 0.619-0.366 1.004-0.366 0.42 0 0.77 0.144 1.052 0.431 0.207-0.287 0.437-0.431 0.69-0.431 0.098 0 0.183 0.033 0.254 0.099s0.108 0.157 0.108 0.272c0 0.101-0.032 0.181-0.095 0.241-0.063 0.057-0.132 0.086-0.207 0.086-0.109 0-0.191-0.050-0.246-0.151-0.052-0.101-0.096-0.151-0.134-0.151-0.072 0-0.154 0.053-0.246 0.16zM61.754 16.862c-0.279 0-0.451 0.070-0.517 0.211s-0.099 0.376-0.099 0.707c0 0.477 0.030 0.785 0.090 0.922 0.063 0.138 0.241 0.207 0.535 0.207 0.299 0 0.478-0.070 0.539-0.211s0.090-0.484 0.090-1.030c0-0.339-0.055-0.558-0.164-0.655-0.106-0.101-0.264-0.151-0.474-0.151zM61.103 20.634c-0.273 0.172-0.409 0.428-0.409 0.767 0 0.534 0.365 0.802 1.095 0.802 0.466 0 0.849-0.109 1.151-0.328 0.305-0.218 0.457-0.474 0.457-0.767 0-0.175-0.076-0.31-0.228-0.405s-0.323-0.142-0.513-0.142c-0.075 0-0.243 0.009-0.504 0.026s-0.455 0.027-0.582 0.030l-0.466 0.017z"></path>
<path fill="#88ab8e" style="fill: var(--color1, #88ab8e)" d="M8.112 18.336h-1.836l-0.59 1.582h1.069v0.22h-2.095v-0.22h0.797l2.108-5.694h0.134l2.022 5.694h0.776v0.22h-2.754v-0.22h0.935l-0.565-1.582zM6.358 18.116h1.677l-0.815-2.315h-0.017l-0.845 2.315z"></path>
<path fill="#594c42" style="fill: var(--color4, #594c42)" d="M10.552 14.358h4.927l0.151 1.966h-0.22c-0.135-0.658-0.315-1.114-0.539-1.366-0.221-0.253-0.513-0.379-0.875-0.379h-0.47v5.34h1.034v0.22h-3.091v-0.22h1.034v-5.34h-0.47c-0.362 0-0.655 0.126-0.879 0.379-0.221 0.253-0.399 0.708-0.534 1.366h-0.22l0.151-1.966zM19.246 20.272c-0.747 0-1.382-0.313-1.905-0.94-0.52-0.626-0.78-1.296-0.78-2.009 0-0.856 0.273-1.586 0.819-2.19 0.549-0.606 1.185-0.909 1.91-0.909 0.681 0 1.292 0.307 1.832 0.922s0.81 1.313 0.81 2.095c0 0.805-0.272 1.512-0.815 2.121-0.54 0.606-1.164 0.91-1.871 0.91zM19.263 14.444c-0.316 0-0.601 0.073-0.853 0.22-0.25 0.144-0.421 0.395-0.513 0.754-0.089 0.359-0.134 0.986-0.134 1.879 0 0.618 0.026 1.111 0.078 1.478s0.182 0.672 0.392 0.914c0.213 0.241 0.545 0.362 0.996 0.362 0.276 0 0.552-0.073 0.828-0.22 0.279-0.147 0.46-0.434 0.543-0.862 0.086-0.431 0.129-1.092 0.129-1.983 0-0.807-0.053-1.365-0.159-1.672-0.103-0.307-0.272-0.529-0.504-0.664-0.23-0.138-0.497-0.207-0.802-0.207zM22.759 14.358h2.073l1.237 4.086h0.017l1.246-4.086h2.021v0.22h-0.858v5.341h0.858v0.22h-2.72v-0.22h0.884v-5.44h-0.017l-1.72 5.659h-0.198l-1.72-5.659h-0.017v5.44h0.884v0.22h-1.97v-0.22h0.866v-5.34h-0.866v-0.22z"></path>
</symbol>
<symbol id="icon-mail-icon" viewBox="0 0 32 32">
<path fill="none" stroke="#88ab8e" style="stroke: var(--color1, #88ab8e)" stroke-linejoin="round" stroke-linecap="butt" stroke-miterlimit="4" stroke-width="1.7778" d="M25.778 10.444c0-0.941-0.763-1.704-1.704-1.704h-17.037c-0.941 0-1.704 0.763-1.704 1.704v11.074c0 0.941 0.763 1.704 1.704 1.704h17.037c0.941 0 1.704-0.763 1.704-1.704v-11.074z"></path>
<path fill="none" stroke="#88ab8e" style="stroke: var(--color1, #88ab8e)" stroke-linejoin="round" stroke-linecap="butt" stroke-miterlimit="4" stroke-width="1.7778" d="M24.567 9.85c0.43-0.394 0.151-1.11-0.432-1.11h-17.16c-0.583 0-0.861 0.716-0.432 1.11l7.285 6.678c0.977 0.896 2.477 0.896 3.454 0l7.285-6.678z"></path>
</symbol>
<symbol id="icon-mobile-icon" viewBox="0 0 32 32">
<path fill="#88ab8e" style="fill: var(--color1, #88ab8e)" d="M20.871 26.191c1.758 0 2.953-0.502 4.038-1.677 0.070-0.080 0.141-0.171 0.211-0.251 0.593-0.663 0.884-1.356 0.884-1.999 0-0.753-0.402-1.436-1.296-2.049l-2.993-2.089c-0.944-0.653-2.039-0.703-2.883 0.141l-0.743 0.743c-0.261 0.261-0.512 0.281-0.814 0.070-0.542-0.362-1.567-1.266-2.27-1.969-0.713-0.713-1.436-1.517-1.828-2.129-0.211-0.311-0.191-0.552 0.070-0.814l0.743-0.743c0.844-0.844 0.793-1.939 0.131-2.883l-2.129-3.044c-0.593-0.864-1.306-1.266-2.059-1.276-0.643-0.010-1.326 0.281-1.989 0.864-0.080 0.070-0.161 0.141-0.241 0.211-1.195 1.095-1.708 2.27-1.708 4.098 0 2.963 1.718 6.459 5.063 9.783 3.325 3.305 6.78 5.012 9.814 5.012zM20.871 24.514c-2.561 0.040-5.746-1.778-8.538-4.55-2.813-2.772-4.681-6.077-4.641-8.638 0.020-1.075 0.402-2.019 1.155-2.682 0.080-0.060 0.141-0.111 0.221-0.171 0.281-0.241 0.583-0.372 0.864-0.372 0.291 0 0.552 0.121 0.753 0.422l1.878 2.823c0.241 0.341 0.251 0.733-0.1 1.075l-0.804 0.793c-0.763 0.743-0.693 1.617-0.211 2.3 0.542 0.753 1.557 1.908 2.411 2.752 0.914 0.904 2.16 2.019 2.883 2.541 0.683 0.482 1.557 0.552 2.3-0.211l0.794-0.804c0.332-0.352 0.723-0.341 1.075-0.11l2.772 1.848c0.311 0.201 0.422 0.452 0.422 0.743 0 0.281-0.131 0.583-0.372 0.874-0.060 0.070-0.11 0.131-0.171 0.211-0.663 0.763-1.607 1.145-2.692 1.155z"></path>
</symbol>
<symbol id="icon-phone-icon" viewBox="0 0 31 32">
<path fill="#594c42" style="fill: var(--color4, #594c42)" d="M20.407 24.153c1.719 0 2.888-0.402 3.948-1.342 0.069-0.064 0.138-0.137 0.206-0.201 0.579-0.53 0.864-1.085 0.864-1.599 0-0.603-0.393-1.149-1.267-1.639l-2.927-1.671c-0.923-0.522-1.994-0.563-2.819 0.113l-0.727 0.595c-0.255 0.209-0.501 0.225-0.796 0.056-0.53-0.289-1.532-1.013-2.22-1.575-0.697-0.571-1.404-1.213-1.788-1.704-0.206-0.249-0.187-0.442 0.069-0.651l0.727-0.595c0.825-0.675 0.776-1.551 0.128-2.306l-2.082-2.435c-0.579-0.691-1.277-1.012-2.013-1.021-0.629-0.008-1.296 0.225-1.945 0.691-0.079 0.056-0.157 0.113-0.236 0.169-1.169 0.876-1.67 1.816-1.67 3.279 0 2.371 1.679 5.167 4.95 7.827 3.251 2.644 6.629 4.010 9.596 4.010zM20.407 22.811c-2.504 0.032-5.618-1.422-8.348-3.64-2.75-2.218-4.577-4.862-4.538-6.911 0.020-0.86 0.393-1.615 1.129-2.146 0.079-0.048 0.138-0.088 0.216-0.137 0.275-0.193 0.57-0.297 0.845-0.297 0.285 0 0.54 0.096 0.737 0.338l1.837 2.258c0.236 0.273 0.246 0.587-0.098 0.86l-0.786 0.635c-0.746 0.595-0.678 1.294-0.206 1.84 0.53 0.603 1.522 1.527 2.357 2.202 0.894 0.723 2.112 1.615 2.819 2.033 0.668 0.386 1.522 0.442 2.249-0.169l0.776-0.643c0.324-0.281 0.707-0.273 1.051-0.088l2.711 1.479c0.305 0.161 0.413 0.362 0.413 0.595 0 0.225-0.128 0.466-0.363 0.699-0.059 0.056-0.108 0.104-0.167 0.169-0.648 0.611-1.571 0.916-2.632 0.924z"></path>
</symbol>
<symbol id="icon-star-icon" viewBox="0 0 33 32">
<path fill="#88ab8e" style="fill: var(--color1, #88ab8e); stroke: var(--color1, #88ab8e)" stroke="#88ab8e" stroke-linejoin="miter" stroke-linecap="butt" stroke-miterlimit="4" stroke-width="3.5556" d="M13.532 7.247c1.297-3.172 1.945-4.758 3.061-4.758s1.764 1.586 3.061 4.758l0.060 0.148c0.733 1.792 1.099 2.688 1.846 3.233s1.727 0.631 3.687 0.803l0.354 0.031c3.208 0.282 4.813 0.423 5.156 1.424s-0.848 2.065-3.231 4.191l-0.795 0.71c-1.206 1.076-1.809 1.615-2.090 2.32-0.052 0.132-0.096 0.266-0.131 0.404-0.185 0.736-0.008 1.516 0.345 3.078l0.11 0.486c0.649 2.87 0.974 4.305 0.407 4.924-0.212 0.231-0.487 0.398-0.793 0.48-0.818 0.219-1.98-0.71-4.303-2.567-1.525-1.22-2.288-1.829-3.164-1.966-0.344-0.054-0.695-0.054-1.040 0-0.876 0.137-1.638 0.747-3.164 1.966-2.323 1.857-3.485 2.786-4.303 2.567-0.306-0.082-0.581-0.248-0.793-0.48-0.567-0.619-0.242-2.054 0.407-4.924l0.11-0.486c0.353-1.562 0.53-2.343 0.345-3.078-0.034-0.137-0.078-0.272-0.13-0.404-0.281-0.706-0.884-1.244-2.090-2.32l-0.795-0.71c-2.383-2.127-3.574-3.19-3.231-4.191s1.947-1.142 5.156-1.424l0.354-0.031c1.96-0.172 2.941-0.258 3.687-0.803s1.113-1.441 1.846-3.233l0.060-0.148z"></path>
</symbol>
<symbol id="icon-telegram-icon" viewBox="0 0 33 32">
<path fill="#88ab8e" style="fill: var(--color1, #88ab8e)" d="M16.294 0h-0.073c-8.816 0-15.964 7.147-15.964 15.964v0.073c0 8.816 7.147 15.964 15.964 15.964h0.073c8.816 0 15.964-7.147 15.964-15.964v-0.073c0-8.816-7.147-15.964-15.964-15.964z"></path>
<path fill="#eee7da" style="fill: var(--color2, #eee7da)" d="M6.319 15.455c0.045-0.022 0.090-0.044 0.133-0.064 0.76-0.352 1.53-0.682 2.299-1.011 0.041 0 0.111-0.048 0.15-0.064 0.059-0.026 0.119-0.050 0.178-0.076 0.114-0.049 0.229-0.098 0.342-0.147 0.229-0.098 0.456-0.195 0.685-0.293l1.369-0.586c0.913-0.39 1.826-0.781 2.739-1.172s1.826-0.781 2.739-1.172c0.913-0.39 1.826-0.781 2.739-1.172s1.826-0.781 2.739-1.172c0.203-0.087 0.423-0.217 0.64-0.256 0.183-0.032 0.361-0.095 0.545-0.13 0.349-0.066 0.733-0.093 1.067 0.052 0.115 0.050 0.222 0.121 0.31 0.21 0.424 0.419 0.364 1.108 0.275 1.697-0.624 4.11-1.249 8.221-1.874 12.331-0.085 0.564-0.202 1.183-0.647 1.539-0.377 0.302-0.913 0.335-1.378 0.207-0.465-0.129-0.876-0.399-1.278-0.665-1.669-1.105-3.34-2.211-5.009-3.316-0.397-0.262-0.839-0.605-0.834-1.082 0.002-0.287 0.174-0.543 0.349-0.77 1.451-1.892 3.544-3.193 5.101-4.998 0.22-0.254 0.392-0.714 0.091-0.861-0.179-0.087-0.386 0.031-0.549 0.145-2.058 1.429-4.116 2.86-6.174 4.289-0.672 0.466-1.376 0.946-2.185 1.061-0.724 0.103-1.453-0.099-2.154-0.305-0.587-0.173-1.174-0.35-1.758-0.532-0.311-0.096-0.631-0.201-0.871-0.419s-0.378-0.586-0.233-0.878c0.091-0.183 0.267-0.298 0.452-0.392l0.002 0.001z"></path>
</symbol>
<symbol id="icon-time-icon" viewBox="0 0 32 32">
<path fill="#88ab8e" style="fill: var(--color1, #88ab8e)" d="M15.719 26.106c5.695 0 10.396-4.701 10.396-10.386s-4.711-10.386-10.406-10.386c-5.685 0-10.376 4.701-10.376 10.386s4.701 10.386 10.386 10.386zM15.719 24.036c-4.611 0-8.297-3.707-8.297-8.317s3.686-8.307 8.287-8.307c4.611 0 8.317 3.696 8.327 8.307s-3.706 8.317-8.317 8.317zM10.657 16.985h5.052c0.462 0 0.814-0.352 0.814-0.804v-6.569c0-0.452-0.352-0.804-0.814-0.804-0.442 0-0.793 0.352-0.793 0.804v5.766h-4.259c-0.452 0-0.804 0.352-0.804 0.804s0.352 0.804 0.804 0.804z"></path>
</symbol>
<symbol id="icon-whatsapp-icon" viewBox="0 0 34 32">
<path fill="#88ab8e" style="fill: var(--color1, #88ab8e)" d="M16.967 0h-0.077c-9.328 0-16.89 7.147-16.89 15.964v0.073c0 8.816 7.562 15.964 16.89 15.964h0.077c9.328 0 16.89-7.147 16.89-15.964v-0.073c0-8.816-7.562-15.964-16.89-15.964z"></path>
<path fill="#eee7da" style="fill: var(--color2, #eee7da)" d="M20.227 20.68c-4.333 0-7.858-3.333-7.86-7.428 0.001-1.038 0.896-1.882 1.992-1.882 0.113 0 0.224 0.009 0.331 0.027 0.235 0.037 0.458 0.112 0.663 0.225 0.030 0.017 0.050 0.044 0.055 0.075l0.458 2.728c0.006 0.031-0.005 0.064-0.027 0.087-0.253 0.265-0.575 0.455-0.935 0.55l-0.173 0.046 0.065 0.158c0.591 1.422 1.794 2.557 3.299 3.118l0.167 0.063 0.049-0.164c0.101-0.34 0.302-0.645 0.582-0.883 0.020-0.018 0.047-0.027 0.075-0.027 0.006 0 0.012 0 0.019 0.001l2.886 0.433c0.034 0.006 0.063 0.024 0.081 0.052 0.119 0.194 0.198 0.406 0.238 0.628 0.019 0.099 0.027 0.203 0.027 0.312 0 1.037-0.893 1.881-1.992 1.882z"></path>
<path fill="#eee7da" style="fill: var(--color2, #eee7da)" d="M27.912 15.101c-0.234-2.496-1.444-4.811-3.407-6.518-1.975-1.718-4.537-2.664-7.217-2.664-5.881 0-10.666 4.523-10.666 10.081 0 1.866 0.544 3.683 1.575 5.266l-2.299 4.81 7.36-0.741c1.28 0.496 2.634 0.747 4.028 0.747 0.367 0 0.743-0.018 1.12-0.055 0.332-0.034 0.668-0.083 0.998-0.146 4.925-0.941 8.52-5.072 8.549-9.827v-0.054c0-0.303-0.014-0.605-0.043-0.898l0.001-0.001zM13.542 23.224l-4.072 0.41 1.216-2.546-0.243-0.308c-0.018-0.022-0.036-0.045-0.056-0.071-1.056-1.378-1.613-3.006-1.613-4.708 0-4.437 3.82-8.047 8.514-8.047 4.398 0 8.127 3.243 8.486 7.384 0.019 0.222 0.030 0.445 0.030 0.665 0 0.063-0.001 0.124-0.002 0.191-0.090 3.712-2.834 6.865-6.672 7.667-0.293 0.062-0.593 0.109-0.892 0.139-0.311 0.034-0.63 0.050-0.947 0.050-1.128 0-2.224-0.206-3.26-0.614-0.115-0.044-0.228-0.091-0.333-0.139l-0.154-0.071-0.001-0.002z"></path>
</symbol>
</defs>
</svg>
