<svg width="41" height="40" fill="none" xmlns="http://www.w3.org/2000/svg"><path d="M20.368 0h-.091C9.257 0 .322 8.934.322 19.954v.091C.322 31.067 9.256 40 20.277 40h.09c11.021 0 19.955-8.934 19.955-19.954v-.091C40.322 8.933 31.388 0 20.368 0Z" fill="#88AB8E"/><path d="M7.9 19.319c.055-.028.111-.055.166-.08.95-.44 1.913-.852 2.874-1.264.052 0 .139-.06.188-.08.074-.032.149-.063.223-.096l.427-.183.856-.366 1.711-.733 3.424-1.464 3.424-1.465 3.423-1.464 3.424-1.465c.254-.109.528-.272.8-.32.229-.04.451-.118.681-.162.436-.082.917-.116 1.334.065.145.063.278.151.389.262.53.524.455 1.384.343 2.122-.78 5.137-1.561 10.276-2.343 15.413-.107.705-.253 1.479-.809 1.924-.47.377-1.14.42-1.722.26-.582-.161-1.095-.5-1.598-.831l-6.261-4.146c-.496-.327-1.048-.756-1.043-1.352.003-.359.217-.678.436-.963 1.813-2.365 4.43-3.99 6.376-6.247.275-.318.49-.893.114-1.076-.224-.11-.482.039-.687.18l-7.717 5.362c-.84.583-1.72 1.183-2.732 1.326-.905.129-1.816-.123-2.692-.381a138.94 138.94 0 0 1-2.197-.666c-.388-.12-.79-.25-1.089-.524-.3-.273-.472-.733-.291-1.097.113-.229.333-.373.564-.49H7.9Z" fill="#EEE7DA"/></svg>