<svg width="36" height="36" fill="none" xmlns="http://www.w3.org/2000/svg"><path d="M17.684 29.369c6.408 0 11.696-5.289 11.696-11.685C29.38 11.288 24.08 6 17.673 6 11.277 6 6 11.289 6 17.684 6 24.08 11.289 29.37 17.684 29.37Zm0-2.328a9.313 9.313 0 0 1-9.334-9.357 9.3 9.3 0 0 1 9.323-9.345 9.34 9.34 0 0 1 9.368 9.345c.011 5.187-4.17 9.357-9.357 9.357Zm-5.695-7.933h5.684c.52 0 .915-.395.915-.904v-7.39a.895.895 0 0 0-.915-.904.89.89 0 0 0-.893.904V17.3h-4.79a.892.892 0 0 0-.905.904c0 .509.396.904.904.904Z" fill="#88AB8E"/></svg>