<svg width="43" height="40" fill="none" xmlns="http://www.w3.org/2000/svg"><path d="M21.209 0h-.096C9.453 0 0 8.934 0 19.954v.091C0 31.067 9.452 40 21.113 40h.096c11.66 0 21.113-8.934 21.113-19.954v-.091C42.322 8.933 32.869 0 21.209 0Z" fill="#88AB8E"/><path d="M25.284 25.85c-5.417 0-9.823-4.166-9.825-9.285.002-1.298 1.12-2.353 2.49-2.353.14 0 .28.011.413.034.294.046.573.14.829.281a.132.132 0 0 1 .068.094l.573 3.41a.126.126 0 0 1-.035.109c-.315.33-.719.569-1.168.688l-.216.058.081.197c.739 1.777 2.242 3.197 4.124 3.897l.209.079.06-.205c.127-.424.379-.805.729-1.104a.14.14 0 0 1 .093-.034c.007 0 .015 0 .024.002l3.607.54c.043.008.079.03.1.065a2.279 2.279 0 0 1 .333 1.175c0 1.296-1.116 2.351-2.49 2.352Z" fill="#EEE7DA"/><path d="M34.89 18.877c-.293-3.12-1.805-6.013-4.259-8.148-2.469-2.147-5.671-3.33-9.02-3.33-7.352 0-13.333 5.654-13.333 12.602 0 2.332.68 4.603 1.969 6.582l-2.874 6.012 9.2-.926c1.6.62 3.293.933 5.036.933a14.167 14.167 0 0 0 2.646-.251c6.157-1.175 10.65-6.34 10.686-12.283v-.067c0-.379-.017-.757-.053-1.123l.002-.001ZM16.928 29.03l-5.09.513 1.52-3.183-.305-.385-.07-.088c-1.319-1.723-2.016-3.758-2.016-5.885 0-5.547 4.775-10.059 10.643-10.059 5.498 0 10.158 4.054 10.608 9.23a9.8 9.8 0 0 1 .037.83l-.003.239c-.113 4.64-3.543 8.58-8.34 9.584-.367.077-.742.136-1.116.174a11.05 11.05 0 0 1-1.183.063 11.061 11.061 0 0 1-4.491-.942l-.193-.088-.001-.003Z" fill="#EEE7DA"/></svg>