<svg width="28" height="23" fill="none" xmlns="http://www.w3.org/2000/svg"><path d="M20.697 22.965c2.417 0 4.06-.565 5.552-1.887.097-.09.193-.192.29-.282.815-.746 1.215-1.526 1.215-2.25 0-.847-.552-1.615-1.781-2.305l-4.116-2.35c-1.298-.735-2.804-.791-3.964.158l-1.022.837c-.359.293-.704.316-1.119.079-.745-.407-2.154-1.424-3.121-2.215-.98-.803-1.975-1.707-2.514-2.396-.29-.35-.262-.621.097-.915l1.022-.836c1.16-.95 1.091-2.181.18-3.244L8.488 1.935C7.673.964 6.692.512 5.656.5c-.884-.011-1.823.317-2.734.972-.11.08-.221.158-.332.237C.947 2.941.242 4.263.242 6.32c0 3.334 2.362 7.267 6.961 11.007 4.572 3.718 9.323 5.64 13.494 5.64Zm0-1.887c-3.522.045-7.9-2-11.74-5.119-3.867-3.119-6.436-6.837-6.38-9.718.027-1.21.552-2.272 1.588-3.017.11-.068.193-.125.303-.192.387-.272.802-.419 1.188-.419.4 0 .76.136 1.036.475l2.583 3.175c.331.385.345.825-.138 1.21l-1.105.892c-1.05.836-.953 1.82-.29 2.588.746.848 2.14 2.147 3.314 3.096 1.257 1.017 2.97 2.272 3.964 2.86.94.542 2.141.62 3.163-.238l1.091-.904c.456-.396.995-.384 1.478-.124l3.812 2.079c.428.226.58.508.58.836 0 .316-.18.655-.51.983a4.43 4.43 0 0 0-.236.238c-.911.858-2.21 1.288-3.701 1.299Z" fill="#594C42"/></svg>